<svg width="300" height="300" viewBox="0 0 300 300" fill="none" xmlns="http://www.w3.org/2000/svg">
<g clip-path="url(#clip0)">
<path d="M260.65 51H87.75C84.4746 51 81.3333 52.3012 79.0172 54.6172C76.7012 56.9333 75.4 60.0746 75.4 63.35V100.4H137.15V75.7H211.25V199.2H260.65C263.925 199.2 267.067 197.899 269.383 195.583C271.699 193.267 273 190.125 273 186.85V63.35C273 60.0746 271.699 56.9333 269.383 54.6172C267.067 52.3012 263.925 51 260.65 51V51ZM115.538 90.7515C115.538 91.6728 115.172 92.5562 114.52 93.2076C113.869 93.859 112.985 94.225 112.064 94.225H100.486C99.5647 94.225 98.6812 93.859 98.0298 93.2076C97.3784 92.5562 97.0125 91.6728 97.0125 90.7515V79.1734C97.0125 78.2522 97.3784 77.3687 98.0298 76.7173C98.6812 76.0659 99.5647 75.7 100.486 75.7H112.064C112.985 75.7 113.869 76.0659 114.52 76.7173C115.172 77.3687 115.538 78.2522 115.538 79.1734V90.7515ZM251.388 171.026C251.388 171.948 251.022 172.831 250.37 173.483C249.719 174.134 248.835 174.5 247.914 174.5H236.336C235.415 174.5 234.531 174.134 233.88 173.483C233.228 172.831 232.863 171.948 232.863 171.026V159.448C232.863 158.527 233.228 157.644 233.88 156.992C234.531 156.341 235.415 155.975 236.336 155.975H247.914C248.835 155.975 249.719 156.341 250.37 156.992C251.022 157.644 251.388 158.527 251.388 159.448V171.026ZM251.388 130.889C251.388 131.81 251.022 132.694 250.37 133.345C249.719 133.997 248.835 134.362 247.914 134.362H236.336C235.415 134.362 234.531 133.997 233.88 133.345C233.228 132.694 232.863 131.81 232.863 130.889V119.311C232.863 118.39 233.228 117.506 233.88 116.855C234.531 116.203 235.415 115.837 236.336 115.837H247.914C248.835 115.837 249.719 116.203 250.37 116.855C251.022 117.506 251.388 118.39 251.388 119.311V130.889ZM251.388 90.7515C251.388 91.6728 251.022 92.5562 250.37 93.2076C249.719 93.859 248.835 94.225 247.914 94.225H236.336C235.415 94.225 234.531 93.859 233.88 93.2076C233.228 92.5562 232.863 91.6728 232.863 90.7515V79.1734C232.863 78.2522 233.228 77.3687 233.88 76.7173C234.531 76.0659 235.415 75.7 236.336 75.7H247.914C248.835 75.7 249.719 76.0659 250.37 76.7173C251.022 77.3687 251.388 78.2522 251.388 79.1734V90.7515ZM186.55 112.75H38.35C35.0746 112.75 31.9333 114.051 29.6172 116.367C27.3012 118.683 26 121.825 26 125.1L26 236.25C26 239.525 27.3012 242.667 29.6172 244.983C31.9333 247.299 35.0746 248.6 38.35 248.6H186.55C189.825 248.6 192.967 247.299 195.283 244.983C197.599 242.667 198.9 239.525 198.9 236.25V125.1C198.9 121.825 197.599 118.683 195.283 116.367C192.967 114.051 189.825 112.75 186.55 112.75ZM63.05 137.45C65.4926 137.45 67.8803 138.174 69.9113 139.531C71.9422 140.888 73.5252 142.817 74.4599 145.074C75.3947 147.33 75.6392 149.814 75.1627 152.209C74.6862 154.605 73.5099 156.806 71.7828 158.533C70.0556 160.26 67.855 161.436 65.4594 161.913C63.0637 162.389 60.5805 162.145 58.3239 161.21C56.0672 160.275 54.1384 158.692 52.7814 156.661C51.4243 154.63 50.7 152.243 50.7 149.8C50.7 146.525 52.0012 143.383 54.3172 141.067C56.6333 138.751 59.7746 137.45 63.05 137.45V137.45ZM174.2 223.9H50.7V211.55L75.4 186.85L87.75 199.2L137.15 149.8L174.2 186.85V223.9Z" fill="#3867D6"/>
</g>
<defs>
<clipPath id="clip0">
<rect width="247" height="197.6" fill="white" transform="translate(26 51)"/>
</clipPath>
</defs>
</svg>
