<svg width="300" height="300" viewBox="0 0 300 300" fill="none" xmlns="http://www.w3.org/2000/svg">
<path d="M265.141 54.625H261.188V64.5078C261.188 67.7691 258.519 70.4375 255.258 70.4375H235.492C232.231 70.4375 229.562 67.7691 229.562 64.5078V54.625H71.4375V64.5078C71.4375 67.7691 68.7691 70.4375 65.5078 70.4375H45.7422C42.4809 70.4375 39.8125 67.7691 39.8125 64.5078V54.625H35.8594C29.2873 54.625 24 59.9123 24 66.4844V232.516C24 239.088 29.2873 244.375 35.8594 244.375H39.8125V234.492C39.8125 231.231 42.4809 228.562 45.7422 228.562H65.5078C68.7691 228.562 71.4375 231.231 71.4375 234.492V244.375H229.562V234.492C229.562 231.231 232.231 228.562 235.492 228.562H255.258C258.519 228.562 261.188 231.231 261.188 234.492V244.375H265.141C271.713 244.375 277 239.088 277 232.516V66.4844C277 59.9123 271.713 54.625 265.141 54.625ZM71.4375 206.82C71.4375 210.082 68.7691 212.75 65.5078 212.75H45.7422C42.4809 212.75 39.8125 210.082 39.8125 206.82V187.055C39.8125 183.793 42.4809 181.125 45.7422 181.125H65.5078C68.7691 181.125 71.4375 183.793 71.4375 187.055V206.82ZM71.4375 159.383C71.4375 162.644 68.7691 165.312 65.5078 165.312H45.7422C42.4809 165.312 39.8125 162.644 39.8125 159.383V139.617C39.8125 136.356 42.4809 133.688 45.7422 133.688H65.5078C68.7691 133.688 71.4375 136.356 71.4375 139.617V159.383ZM71.4375 111.945C71.4375 115.207 68.7691 117.875 65.5078 117.875H45.7422C42.4809 117.875 39.8125 115.207 39.8125 111.945V92.1797C39.8125 88.9184 42.4809 86.25 45.7422 86.25H65.5078C68.7691 86.25 71.4375 88.9184 71.4375 92.1797V111.945ZM205.844 214.727C205.844 217.988 203.175 220.656 199.914 220.656H101.086C97.8246 220.656 95.1562 217.988 95.1562 214.727V167.289C95.1562 164.028 97.8246 161.359 101.086 161.359H199.914C203.175 161.359 205.844 164.028 205.844 167.289V214.727ZM205.844 131.711C205.844 134.972 203.175 137.641 199.914 137.641H101.086C97.8246 137.641 95.1562 134.972 95.1562 131.711V84.2734C95.1562 81.0121 97.8246 78.3438 101.086 78.3438H199.914C203.175 78.3438 205.844 81.0121 205.844 84.2734V131.711ZM261.188 206.82C261.188 210.082 258.519 212.75 255.258 212.75H235.492C232.231 212.75 229.562 210.082 229.562 206.82V187.055C229.562 183.793 232.231 181.125 235.492 181.125H255.258C258.519 181.125 261.188 183.793 261.188 187.055V206.82ZM261.188 159.383C261.188 162.644 258.519 165.312 255.258 165.312H235.492C232.231 165.312 229.562 162.644 229.562 159.383V139.617C229.562 136.356 232.231 133.688 235.492 133.688H255.258C258.519 133.688 261.188 136.356 261.188 139.617V159.383ZM261.188 111.945C261.188 115.207 258.519 117.875 255.258 117.875H235.492C232.231 117.875 229.562 115.207 229.562 111.945V92.1797C229.562 88.9184 232.231 86.25 235.492 86.25H255.258C258.519 86.25 261.188 88.9184 261.188 92.1797V111.945Z" fill="#EB3B5A"/>
</svg>
