<svg width="500" height="500" viewBox="0 0 500 500" fill="none" xmlns="http://www.w3.org/2000/svg">
<circle cx="250.5" cy="250.5" r="193.5" fill="#061E26" stroke="#26C9FF" stroke-width="24"/>
<g filter="url(#filter0_i_1_30)">
<path fill-rule="evenodd" clip-rule="evenodd" d="M146 162.639C146 161.649 146.33 160.825 147.649 160.825C158.041 160.33 172.887 160 188.887 160C233.423 160 252.887 184.412 252.887 215.753C252.887 256.66 222.866 274.144 186.577 274.144C180.474 274.144 178.33 273.814 174.041 273.814V336.495C174.041 337.814 173.546 338.309 172.227 338.309H147.814C146.495 338.309 146 337.814 146 336.495V162.639ZM174.041 248.082C177.67 248.412 180.639 248.412 187.072 248.412C205.876 248.412 223.856 241.814 223.856 216.247C223.856 195.794 210.99 185.402 189.381 185.402C182.948 185.402 176.845 185.732 174.041 185.897V248.082V248.082ZM317.876 228.948C305.175 228.948 300.887 235.381 300.887 240.66C300.887 246.433 303.856 250.557 320.845 259.299C346.082 271.505 354 283.216 354 300.536C354 326.268 334.371 340.124 307.814 340.124C293.794 340.124 281.258 337.155 274.33 333.196C273.34 332.701 273.01 331.876 273.01 330.557V306.804C273.01 305.155 273.835 304.66 274.825 305.485C284.887 312.082 297.258 315.052 307.814 315.052C320.515 315.052 325.794 309.773 325.794 302.515C325.794 296.742 322.165 291.629 305.835 283.052C282.907 272.165 273.505 260.948 273.505 242.474C273.505 221.691 289.67 204.536 317.876 204.536C331.732 204.536 341.959 206.68 347.237 208.99C348.557 209.814 348.887 211.134 348.887 212.124V234.227C348.887 235.546 348.062 236.371 346.577 235.876C339.32 231.588 328.268 228.948 317.876 228.948Z" fill="#D9F5FF"/>
</g>
<defs>
<filter id="filter0_i_1_30" x="146" y="160" width="208" height="186.124" filterUnits="userSpaceOnUse" color-interpolation-filters="sRGB">
<feFlood flood-opacity="0" result="BackgroundImageFix"/>
<feBlend mode="normal" in="SourceGraphic" in2="BackgroundImageFix" result="shape"/>
<feColorMatrix in="SourceAlpha" type="matrix" values="0 0 0 0 0 0 0 0 0 0 0 0 0 0 0 0 0 0 127 0" result="hardAlpha"/>
<feOffset dy="6"/>
<feGaussianBlur stdDeviation="6.5"/>
<feComposite in2="hardAlpha" operator="arithmetic" k2="-1" k3="1"/>
<feColorMatrix type="matrix" values="0 0 0 0 0 0 0 0 0 0 0 0 0 0 0 0 0 0 0.25 0"/>
<feBlend mode="normal" in2="shape" result="effect1_innerShadow_1_30"/>
</filter>
</defs>
</svg>
