<svg width="300" height="300" viewBox="0 0 300 300" fill="none" xmlns="http://www.w3.org/2000/svg">
<g clip-path="url(#clip0)">
<path d="M164.833 94.0417V31H72.125C65.9599 31 61 35.9599 61 42.125V257.208C61 263.373 65.9599 268.333 72.125 268.333H227.875C234.04 268.333 239 263.373 239 257.208V105.167H175.958C169.84 105.167 164.833 100.16 164.833 94.0417ZM194.5 203.437C194.5 206.497 191.997 209 188.937 209H111.062C108.003 209 105.5 206.497 105.5 203.437V199.729C105.5 196.67 108.003 194.167 111.062 194.167H188.937C191.997 194.167 194.5 196.67 194.5 199.729V203.437ZM194.5 173.771C194.5 176.83 191.997 179.333 188.937 179.333H111.062C108.003 179.333 105.5 176.83 105.5 173.771V170.062C105.5 167.003 108.003 164.5 111.062 164.5H188.937C191.997 164.5 194.5 167.003 194.5 170.062V173.771ZM194.5 140.396V144.104C194.5 147.164 191.997 149.667 188.937 149.667H111.062C108.003 149.667 105.5 147.164 105.5 144.104V140.396C105.5 137.336 108.003 134.833 111.062 134.833H188.937C191.997 134.833 194.5 137.336 194.5 140.396ZM239 87.5057V90.3333H179.667V31H182.494C185.461 31 188.289 32.1589 190.374 34.2448L235.755 79.6719C237.841 81.7578 239 84.5854 239 87.5057Z" fill="#FFA502"/>
</g>
<defs>
<clipPath id="clip0">
<rect width="178" height="237.333" fill="white" transform="translate(61 31)"/>
</clipPath>
</defs>
</svg>
